<svg width="80" height="81" viewBox="0 0 80 81" fill="none" xmlns="http://www.w3.org/2000/svg">
<path opacity="0.933" fill-rule="evenodd" clip-rule="evenodd" d="M39.5983 15.5C39.8601 15.5 40.1219 15.5 40.3837 15.5C40.4778 15.6427 40.5922 15.7729 40.7273 15.8906C40.7928 17.9414 40.7928 19.9922 40.7273 22.043C40.3501 22.5074 39.9084 22.5888 39.402 22.2872C39.2825 22.1263 39.2007 21.9472 39.1565 21.7501C39.0911 19.8946 39.0911 18.0391 39.1565 16.1836C39.21 15.888 39.3573 15.6601 39.5983 15.5Z" fill="#262626"/>
<path opacity="0.918" fill-rule="evenodd" clip-rule="evenodd" d="M27.4251 19.0154C27.862 18.9804 28.2056 19.1432 28.4559 19.5037C29.3722 20.936 30.2885 22.3683 31.2048 23.8006C31.5334 24.8408 31.1571 25.2803 30.0758 25.119C29.0084 23.5979 27.9776 22.0516 26.9833 20.4802C26.6813 19.8309 26.8286 19.3426 27.4251 19.0154Z" fill="#262626"/>
<path opacity="0.912" fill-rule="evenodd" clip-rule="evenodd" d="M52.3612 19.3089C53.3472 19.2309 53.6908 19.6541 53.392 20.5785C52.334 22.1841 51.2378 23.7629 50.1032 25.3148C49.0652 25.4211 48.7216 24.9817 49.0724 23.9965C50.1202 22.3872 51.2164 20.8247 52.3612 19.3089Z" fill="#262626"/>
<path opacity="0.929" fill-rule="evenodd" clip-rule="evenodd" d="M38.715 26.2419C44.8913 26.0288 49.3255 28.6656 52.0176 34.1522C54.0429 40.0226 52.7667 45.0683 48.1888 49.289C47.5119 50.3645 47.0865 51.5364 46.9125 52.8047C46.8128 53.7136 46.7473 54.625 46.7162 55.5391C46.6344 55.8158 46.4544 55.9949 46.1762 56.0762C41.9816 56.1723 37.7928 56.1397 33.6099 55.9785C33.4149 55.8497 33.3003 55.6707 33.2663 55.4414C33.4078 53.2796 32.9497 51.2613 31.8919 49.3867C31.1392 48.5729 30.3866 47.759 29.6339 46.9453C26.2169 41.8194 26.1842 36.6761 29.5357 31.5154C31.883 28.5331 34.9428 26.7752 38.715 26.2419ZM38.6168 27.9021C43.2167 27.5618 46.8327 29.2545 49.4651 32.9803C51.853 36.9982 51.8857 41.0347 49.5632 45.0898C48.8592 46.1327 48.0412 47.0768 47.1089 47.9218C45.7723 49.852 45.1014 52.0005 45.0963 54.3672C41.6929 54.3672 38.2896 54.3672 34.8862 54.3672C34.9016 52.1463 34.329 50.0955 33.1681 48.2148C32.4154 47.401 31.6628 46.5871 30.9101 45.7734C28.0774 41.5095 27.9792 37.1799 30.6156 32.785C32.5959 30.0501 35.263 28.4224 38.6168 27.9021Z" fill="#262626"/>
<path opacity="0.914" fill-rule="evenodd" clip-rule="evenodd" d="M19.4727 27.4143C19.8105 27.3949 20.1378 27.4437 20.4544 27.5608C21.935 28.4138 23.4403 29.2276 24.9704 30.0022C25.3799 30.3786 25.4617 30.818 25.2159 31.3206C24.9483 31.5612 24.6374 31.6426 24.2832 31.5647C22.647 30.6858 21.0108 29.8069 19.3745 28.928C18.8443 28.3899 18.8771 27.8854 19.4727 27.4143Z" fill="#262626"/>
<path opacity="0.914" fill-rule="evenodd" clip-rule="evenodd" d="M59.822 27.4145C60.5171 27.2869 60.9098 27.5635 61.0001 28.2446C60.9711 28.53 60.8402 28.758 60.6074 28.9282C58.9711 29.8071 57.335 30.686 55.6987 31.5649C54.8482 31.6626 54.5046 31.2883 54.6679 30.4419C54.7449 30.2675 54.8594 30.121 55.0115 30.0024C56.621 29.137 58.2245 28.2744 59.822 27.4145Z" fill="#262626"/>
<path opacity="0.926" fill-rule="evenodd" clip-rule="evenodd" d="M39.5985 29.5625C44.5842 29.608 47.9384 31.9518 49.6614 36.5938C49.9964 37.7206 50.0946 38.86 49.9559 40.0118C49.5287 40.4761 49.0706 40.5087 48.5815 40.1095C48.0736 34.5261 45.0139 31.4825 39.4022 30.9785C39.0197 30.4439 39.0852 29.9719 39.5985 29.5625Z" fill="#262626"/>
<path opacity="0.942" fill-rule="evenodd" clip-rule="evenodd" d="M34.2971 56.906C38.0606 56.8897 41.8239 56.906 45.5872 56.9548C46.9687 57.4741 47.4105 58.4345 46.9125 59.8357C46.5189 60.4633 45.9462 60.8051 45.1945 60.8611C41.6929 60.9263 38.1914 60.9263 34.6898 60.8611C33.1559 60.5285 32.5833 59.6008 32.9718 58.0779C33.2516 57.4933 33.6933 57.1027 34.2971 56.906ZM34.8862 58.4685C38.2897 58.4522 41.6931 58.4685 45.0963 58.5174C45.3882 58.6369 45.4536 58.8322 45.2926 59.1033C41.7584 59.1684 38.2241 59.1684 34.6898 59.1033C34.409 58.7855 34.4745 58.5739 34.8862 58.4685Z" fill="#262626"/>
<path opacity="0.962" fill-rule="evenodd" clip-rule="evenodd" d="M44.2125 65.5001C41.3982 65.5001 38.5839 65.5001 35.7695 65.5001C34.3789 64.8169 34.0353 63.7751 34.7387 62.375C35.0046 62.0231 35.3482 61.7789 35.7695 61.6426C38.5839 61.5775 41.3982 61.5775 44.2125 61.6426C45.5897 62.3199 45.9333 63.3453 45.2434 64.7188C44.9631 65.0812 44.6195 65.3416 44.2125 65.5001ZM36.2604 63.1563C38.715 63.14 41.1693 63.1563 43.6235 63.2051C43.9664 63.3495 43.9991 63.5448 43.7217 63.7911C41.2346 63.8562 38.7475 63.8562 36.2604 63.7911C36.0197 63.588 36.0197 63.3764 36.2604 63.1563Z" fill="#262626"/>
<circle cx="40" cy="40.5" r="39.5" stroke="#262626"/>
</svg>
