<svg width="80" height="81" viewBox="0 0 80 81" fill="none" xmlns="http://www.w3.org/2000/svg">
<circle cx="40" cy="40.5" r="39.5" stroke="#262626"/>
<path opacity="0.946" fill-rule="evenodd" clip-rule="evenodd" d="M65 20.76C65 21.2163 65 21.6726 65 22.1289C62.2531 35.1141 59.535 48.1185 56.8457 61.1422C56.4999 62.3025 55.7187 62.9218 54.502 63C54.0254 62.9633 53.5859 62.8167 53.1836 62.56C49.5703 59.92 45.957 57.28 42.3438 54.64C41.9069 54.2407 41.4512 54.208 40.9766 54.5422C38.8238 56.3393 36.6429 58.0993 34.4336 59.8222C33.0385 60.3056 31.9806 59.8983 31.2598 58.6C29.8403 54.1082 28.4405 49.6104 27.0605 45.1067C23.4652 43.7546 19.8682 42.4019 16.2695 41.0489C15.6508 40.7397 15.2276 40.2671 15 39.6311C15 39.1748 15 38.7186 15 38.2622C15.2605 37.5933 15.7163 37.0881 16.3672 36.7467C31.7441 30.776 47.1413 24.8604 62.5586 19C63.7628 19.0675 64.5766 19.6542 65 20.76ZM62.4609 21.1511C62.7306 21.0939 62.8933 21.1917 62.9492 21.4444C60.2271 34.5504 57.4928 47.6526 54.7461 60.7511C54.681 60.7837 54.6159 60.8163 54.5508 60.8489C50.8418 58.2417 47.1634 55.5855 43.5156 52.88C42.2852 51.9939 41.0481 51.9613 39.8047 52.7822C37.6996 54.5319 35.5675 56.243 33.4082 57.9156C33.264 57.8233 33.1663 57.6929 33.1152 57.5244C31.7022 52.9218 30.27 48.3263 28.8184 43.7378C28.6291 43.483 28.385 43.3037 28.0859 43.2C24.3994 41.872 20.7373 40.4868 17.0996 39.0444C17.0264 38.9335 17.0427 38.8357 17.1484 38.7511C32.2612 32.8791 47.3654 27.0124 62.4609 21.1511Z" fill="#262626"/>
<path opacity="0.947" fill-rule="evenodd" clip-rule="evenodd" d="M52.7931 27.7025C54.4134 27.5917 54.983 28.3087 54.5021 29.8536C48.6752 35.2966 42.8484 40.7395 37.0216 46.1825C36.8646 46.4643 36.7344 46.7577 36.631 47.0625C36.394 48.6254 36.1661 50.1899 35.9474 51.7559C35.7571 52.5489 35.2525 52.9726 34.4337 53.027C33.5851 52.9435 33.048 52.4872 32.8224 51.6581C32.1063 49.1159 31.39 46.5736 30.6739 44.0314C30.3246 42.5122 30.7966 41.3226 32.0899 40.4625C39.0078 36.2226 45.9088 31.9693 52.7931 27.7025ZM47.422 33.5692C42.9678 36.2885 38.5081 39.0099 34.0431 41.7336C33.5923 41.9839 33.1855 42.2936 32.8224 42.6625C32.6801 42.9428 32.6476 43.2361 32.7247 43.5425C33.1978 45.2743 33.686 47.0017 34.1896 48.7247C34.343 47.8786 34.5058 47.0312 34.6778 46.1825C34.9496 45.4869 35.3402 44.8677 35.8497 44.3247C39.7558 40.7886 43.6132 37.2034 47.422 33.5692Z" fill="#262626"/>
<path opacity="0.902" fill-rule="evenodd" clip-rule="evenodd" d="M56.1136 40.6087C56.9891 40.426 57.4774 40.7682 57.5785 41.6354C57.5386 42.0958 57.4247 42.5358 57.2367 42.9554C56.6186 43.4932 56.0327 43.4606 55.4788 42.8576C55.3058 42.2967 55.3384 41.7427 55.5765 41.1954C55.7093 40.9487 55.8883 40.7532 56.1136 40.6087Z" fill="#262626"/>
<path opacity="0.941" fill-rule="evenodd" clip-rule="evenodd" d="M55.0392 45.2053C55.918 44.9921 56.4389 45.318 56.6017 46.1831C55.8522 49.739 55.0873 53.2915 54.3068 56.8409C54.1957 57.4411 53.8376 57.767 53.2326 57.8186C52.4005 57.6697 52.0751 57.1808 52.256 56.352C53.0171 52.8999 53.7659 49.4451 54.5021 45.9875C54.6264 45.6847 54.8055 45.4239 55.0392 45.2053Z" fill="#262626"/>
</svg>
