<svg width="80" height="81" viewBox="0 0 80 81" fill="none" xmlns="http://www.w3.org/2000/svg">
<circle cx="40" cy="40.5" r="39.5" stroke="#262626"/>
<path opacity="0.962" fill-rule="evenodd" clip-rule="evenodd" d="M19.6877 19.3201C20.6307 19.2378 21.0051 19.661 20.8107 20.5896C20.2132 21.2657 19.6598 21.2332 19.1505 20.492C19.0405 19.9636 19.2196 19.5729 19.6877 19.3201Z" fill="#262626"/>
<path opacity="0.972" fill-rule="evenodd" clip-rule="evenodd" d="M23.0077 19.3201C23.9508 19.2378 24.3251 19.661 24.1308 20.5896C23.6485 21.1906 23.1277 21.2232 22.5683 20.6873C22.3344 20.1031 22.4809 19.6473 23.0077 19.3201Z" fill="#262626"/>
<path opacity="0.974" fill-rule="evenodd" clip-rule="evenodd" d="M26.3281 19.3201C27.2711 19.2378 27.6455 19.661 27.4511 20.5896C27.1152 21.0738 26.6757 21.1877 26.1328 20.9314C25.5857 20.3129 25.6508 19.7758 26.3281 19.3201Z" fill="#262626"/>
<path opacity="0.965" fill-rule="evenodd" clip-rule="evenodd" d="M32.0895 19.3206C39.2836 19.3043 46.4776 19.3206 53.6716 19.3694C54.0216 19.5319 54.1844 19.8086 54.1598 20.1995C54.1924 20.6394 53.9971 20.9161 53.5739 21.0295C46.445 21.0947 39.3161 21.0947 32.1872 21.0295C31.4417 20.5086 31.4092 19.939 32.0895 19.3206Z" fill="#262626"/>
<path opacity="0.98" fill-rule="evenodd" clip-rule="evenodd" d="M15.4883 16C29.323 16 43.1575 16 56.9922 16C57.3024 16.1648 57.4814 16.4252 57.5293 16.7813C57.6247 20.692 57.5921 24.5983 57.4316 28.5C56.9108 29.0208 56.3899 29.0208 55.8691 28.5C55.8366 28.3698 55.804 28.2396 55.7715 28.1094C55.7227 24.659 55.7064 21.2085 55.7227 17.7578C42.7344 17.7578 29.7461 17.7578 16.7578 17.7578C16.7578 19.3854 16.7578 21.013 16.7578 22.6406C29.0625 22.6243 41.3672 22.6406 53.6719 22.6895C54.0219 22.8519 54.1847 23.1286 54.1602 23.5195C54.1847 23.9104 54.0219 24.1871 53.6719 24.3496C41.3672 24.3984 29.0625 24.4147 16.7578 24.3984C16.7578 35.2058 16.7578 46.013 16.7578 56.8203C20.3061 56.804 23.8543 56.8203 27.4023 56.8691C27.8485 57.1173 27.995 57.4917 27.8418 57.9922C27.7651 58.1666 27.6513 58.3131 27.5 58.4316C23.5345 58.5927 19.5631 58.6253 15.5859 58.5293C15.3275 58.4508 15.1322 58.3043 15 58.0898C15 44.1901 15 30.2903 15 16.3906C15.1651 16.2575 15.3279 16.1272 15.4883 16Z" fill="#262626"/>
<path opacity="0.978" fill-rule="evenodd" clip-rule="evenodd" d="M41.9536 25.9609C49.1895 25.7619 54.8372 28.6265 58.897 34.5546C62.0437 39.9151 62.5319 45.5141 60.3618 51.3515C59.7644 52.0276 59.2109 51.995 58.7017 51.2538C58.6365 51.0585 58.6365 50.8632 58.7017 50.6679C59.417 48.9135 59.8238 47.0906 59.9224 45.1992C58.0018 45.1992 56.0813 45.1992 54.1606 45.1992C54.1501 46.6069 54.0361 48.0066 53.8189 49.3984C53.5447 50.0714 53.0728 50.2504 52.4028 49.9355C52.1717 49.7479 52.0415 49.5037 52.0122 49.2031C52.2521 47.879 52.3822 46.5444 52.4028 45.1992C49.6685 45.1992 46.9341 45.1992 44.1997 45.1992C44.1997 47.4127 44.1997 49.6262 44.1997 51.8398C45.5081 51.8176 46.8103 51.899 48.106 52.0839C48.9854 52.5059 49.083 53.0593 48.3989 53.7441C48.2524 53.7929 48.106 53.8417 47.9595 53.8906C46.7158 53.6799 45.4626 53.5823 44.1997 53.5976C44.1997 56.039 44.1997 58.4804 44.1997 60.9218C46.0641 60.8382 47.8544 60.4313 49.5708 59.7011C50.5637 59.5221 50.9705 59.9289 50.7915 60.9218C50.5202 61.2448 50.1784 61.4564 49.7661 61.5566C43.3557 63.7107 37.4313 62.7992 31.9927 58.8222C25.7815 53.4362 23.7145 46.7467 25.7915 38.7538C26.5271 36.3199 27.7478 34.1878 29.4536 32.3574C29.7141 32.2922 29.9744 32.2922 30.2349 32.3574C31.5175 32.9252 32.8358 33.3972 34.1899 33.7734C34.7159 32.7544 35.2692 31.7453 35.8501 30.746C36.2632 30.0995 36.7352 29.4973 37.2661 28.9394C36.5595 29.1453 35.8759 29.4383 35.2153 29.8183C34.2772 30.3986 33.3657 31.017 32.481 31.6738C31.3925 31.6628 31.0833 31.1582 31.5532 30.1601C34.6055 27.7374 38.0723 26.3377 41.9536 25.9609ZM42.2466 27.8163C42.441 30.223 42.5061 32.6644 42.4419 35.1406C40.2895 35.0935 38.1735 34.8005 36.0942 34.2616C36.995 31.9137 38.4599 30.0094 40.4888 28.5488C41.0579 28.2351 41.6439 27.9909 42.2466 27.8163ZM44.1997 27.8163C45.5873 28.16 46.7755 28.8436 47.7642 29.8671C48.9497 31.1788 49.8774 32.66 50.5474 34.3105C48.4567 34.7835 46.3409 35.0602 44.1997 35.1406C44.1997 32.6991 44.1997 30.2577 44.1997 27.8163ZM49.4731 28.9882C51.6865 29.8346 53.607 31.1204 55.2349 32.8456C54.2867 33.2268 53.3264 33.5686 52.354 33.871C51.6154 32.0991 50.6551 30.4714 49.4731 28.9882ZM30.1372 34.2616C31.3166 34.7221 32.4885 35.1778 33.6528 35.6288C32.8708 38.1737 32.4802 40.7779 32.481 43.4413C30.5604 43.4413 28.6398 43.4413 26.7192 43.4413C26.9358 40.0233 28.0751 36.9633 30.1372 34.2616ZM56.4067 34.2616C57.8935 36.0632 58.9189 38.114 59.4829 40.414C59.7143 41.4116 59.8607 42.4206 59.9224 43.4413C58.0018 43.4413 56.0813 43.4413 54.1606 43.4413C54.1342 40.8148 53.7436 38.2432 52.9888 35.7265C52.9993 35.6345 53.0318 35.5532 53.0864 35.4824C54.2327 35.1521 55.3395 34.7451 56.4067 34.2616ZM35.4106 36.0195C37.7277 36.5206 40.0715 36.8136 42.4419 36.8984C42.4419 39.0793 42.4419 41.2604 42.4419 43.4413C39.7075 43.4413 36.9731 43.4413 34.2388 43.4413C34.2913 40.9126 34.6819 38.4387 35.4106 36.0195ZM50.8403 36.0195C50.9694 36.0029 51.0834 36.0354 51.1821 36.1171C51.9058 38.5059 52.3127 40.9473 52.4028 43.4413C49.6685 43.4413 46.9341 43.4413 44.1997 43.4413C44.1997 41.2604 44.1997 39.0793 44.1997 36.8984C46.4604 36.8589 48.6738 36.5659 50.8403 36.0195ZM26.7192 45.1992C28.6398 45.1992 30.5604 45.1992 32.481 45.1992C32.4978 47.9202 32.9209 50.5733 33.7505 53.1581C32.5665 53.4877 31.4108 53.8946 30.2837 54.3788C29.7923 53.8874 29.369 53.3341 29.0142 52.7187C27.6888 50.3861 26.9237 47.8795 26.7192 45.1992ZM34.2388 45.1992C36.9731 45.1992 39.7075 45.1992 42.4419 45.1992C42.4419 47.4127 42.4419 49.6262 42.4419 51.8398C40.0742 51.8408 37.7467 52.1337 35.4595 52.7187C34.6753 50.2731 34.2684 47.7665 34.2388 45.1992ZM40.7817 53.5976C41.3352 53.5976 41.8885 53.5976 42.4419 53.5976C42.4419 56.0065 42.4419 58.4153 42.4419 60.8242C41.1096 60.5812 39.9702 59.9789 39.0239 59.0175C37.7663 57.6916 36.7897 56.178 36.0942 54.4765C36.6228 54.2629 37.1762 54.1164 37.7544 54.037C38.7766 53.8811 39.7856 53.7346 40.7817 53.5976ZM34.1411 54.8671C34.2267 54.8543 34.2918 54.8868 34.3364 54.9648C35.0303 56.7285 36.0068 58.3074 37.2661 59.7011C35.0369 58.8745 33.0838 57.605 31.4067 55.8925C32.3067 55.5005 33.2182 55.1587 34.1411 54.8671Z" fill="#262626"/>
<path opacity="0.978" fill-rule="evenodd" clip-rule="evenodd" d="M26.426 29.5742C27.3556 29.5756 27.6974 30.0313 27.4514 30.9414C24.1758 34.9258 22.5157 39.5156 22.4709 44.7109C22.1881 45.1655 21.7812 45.312 21.2502 45.1504C20.8311 44.8489 20.6684 44.442 20.762 43.9297C20.9351 38.6395 22.6766 33.952 25.9866 29.8672C26.1479 29.7794 26.2944 29.6817 26.426 29.5742Z" fill="#262626"/>
<path opacity="0.978" fill-rule="evenodd" clip-rule="evenodd" d="M59.922 29.6719C60.3689 29.6785 60.7107 29.8738 60.9474 30.2578C62.3388 31.9979 63.4292 33.9185 64.2189 36.0195C63.9532 36.9355 63.4161 37.1308 62.6075 36.6055C61.7725 34.5755 60.6656 32.72 59.2872 31.0391C59.0596 30.3688 59.2711 29.913 59.922 29.6719Z" fill="#262626"/>
<path opacity="0.981" fill-rule="evenodd" clip-rule="evenodd" d="M64.9999 62.3868C64.9999 62.6798 64.9999 62.9728 64.9999 63.2657C64.0559 64.1446 63.1445 65.0561 62.2656 66.0001C61.9726 66.0001 61.6796 66.0001 61.3867 66.0001C59.7976 64.46 58.2189 62.8975 56.6503 61.3126C55.9863 62.2988 55.2865 63.2592 54.5507 64.1935C54.0599 64.3394 53.6531 64.2254 53.33 63.8517C52.3535 60.1407 51.3769 56.4298 50.4003 52.7189C50.1722 51.6777 50.5791 51.2382 51.621 51.4005C55.3699 52.3946 59.1134 53.4037 62.8515 54.4279C63.2703 54.7961 63.3516 55.2356 63.0956 55.7462C62.1557 56.3864 61.228 57.0375 60.3124 57.6993C61.8445 59.2964 63.407 60.8589 64.9999 62.3868ZM52.4999 53.5001C55.0739 54.1518 57.6455 54.8191 60.2148 55.5021C59.489 55.9707 58.7892 56.4753 58.1152 57.0157C57.9729 57.2956 57.9404 57.5886 58.0175 57.8946C59.5935 59.5683 61.2048 61.2122 62.8515 62.8263C62.526 63.1518 62.2004 63.4774 61.8749 63.8029C61.8098 63.868 61.7448 63.868 61.6796 63.8029C60.1171 62.2404 58.5546 60.6779 56.9921 59.1154C56.4577 58.8577 56.0182 58.9716 55.6738 59.4571C55.2831 60.0431 54.8925 60.629 54.5019 61.215C53.7883 58.6534 53.1209 56.0819 52.4999 53.5001Z" fill="#262626"/>
</svg>
