<svg width="80" height="80" viewBox="0 0 80 80" fill="none" xmlns="http://www.w3.org/2000/svg">
<circle cx="40" cy="40" r="39.5" stroke="#262626"/>
<path opacity="0.939" fill-rule="evenodd" clip-rule="evenodd" d="M40.8919 15C45.7147 15 50.5375 15 55.3603 15C59.1921 15.8956 61.3887 18.2719 61.9504 22.1289C62.0165 34.0104 62.0165 45.8919 61.9504 57.7734C61.4347 61.6828 59.238 64.0917 55.3603 65C47.2012 65 39.042 65 30.8829 65C30.4667 64.6564 30.3841 64.2333 30.6351 63.7305C30.7095 63.6693 30.7921 63.6205 30.8829 63.584C38.6126 63.5515 46.3423 63.5188 54.0721 63.4863C57.706 63.1604 59.8036 61.2234 60.3648 57.6758C60.4144 52.0443 60.4309 46.4129 60.4144 40.7812C60.2135 40.7654 60.0153 40.7817 59.8198 40.8301C58.7463 41.888 57.6726 42.946 56.5991 44.0039C56.6864 45.9983 55.778 47.3167 53.8739 47.959C51.6132 48.2997 50.1432 47.4045 49.4639 45.2734C49.2736 42.4659 50.6114 41.0173 53.4775 40.9277C54.8318 39.5931 56.1861 38.2585 57.5405 36.9238C57.8495 36.739 58.1798 36.6088 58.5315 36.5332C59.1583 36.4844 59.7859 36.4682 60.4144 36.4844C60.4144 36.1914 60.4144 35.8984 60.4144 35.6055C57.5403 35.5892 54.6665 35.6055 51.7928 35.6543C51.3468 36.0938 50.9009 36.5332 50.4549 36.9727C50.5323 39.0886 49.5579 40.4395 47.5315 41.0254C45.7394 41.2896 44.4016 40.6549 43.518 39.1211C42.8573 37.4608 43.1712 36.0122 44.4594 34.7754C45.284 34.1815 46.2088 33.9211 47.2342 33.9941C47.9609 33.278 48.6877 32.5618 49.4144 31.8457C49.6683 31.6101 49.9656 31.4473 50.3063 31.3574C51.5946 31.2923 52.8829 31.2923 54.1712 31.3574C54.6916 31.6588 54.7907 32.0657 54.4684 32.5781C54.353 32.684 54.2209 32.7653 54.0721 32.8223C52.8734 32.8262 51.6842 32.8913 50.5045 33.0176C49.958 33.5398 49.4295 34.077 48.9189 34.6289C49.2135 34.8541 49.4778 35.1146 49.7117 35.4102C50.1924 34.9526 50.6879 34.5132 51.1982 34.0918C54.2701 34.043 57.3421 34.0267 60.4144 34.043C60.4144 33.6523 60.4144 33.2617 60.4144 32.8711C59.1587 32.8874 57.9034 32.8711 56.6486 32.8223C56.1129 32.6289 55.9313 32.2545 56.1036 31.6992C56.2192 31.5853 56.3348 31.4714 56.4504 31.3574C57.7713 31.3086 59.0927 31.2923 60.4144 31.3086C60.4144 31.0156 60.4144 30.7227 60.4144 30.4297C58.5973 30.446 56.7804 30.4297 54.9639 30.3809C54.6531 30.3222 54.3558 30.2245 54.0721 30.0879C52.6847 28.7207 51.2973 27.3535 49.9099 25.9863C47.7691 26.0648 46.3982 25.1046 45.7973 23.1055C45.5916 20.7909 46.6321 19.3749 48.9189 18.8574C51.5994 18.8947 52.9703 20.2456 53.0315 22.9102C54.0721 23.9355 55.1126 24.9609 56.1531 25.9863C57.5731 26.0352 58.9936 26.0515 60.4144 26.0352C60.4309 24.7652 60.4144 23.4957 60.3648 22.2266C59.7687 18.7744 57.704 16.8701 54.1712 16.5137C50.7027 16.4486 47.2342 16.4486 43.7658 16.5137C41.454 16.676 40.017 17.8642 39.4549 20.0781C39.4219 22.9102 39.3888 25.7422 39.3558 28.5742C39.0604 31.8433 37.3922 34.1382 34.3513 35.459C33.645 35.7089 32.9182 35.8717 32.1712 35.9473C29.0621 35.951 25.9571 36.016 22.8559 36.1426C20.9966 36.7381 19.923 37.9914 19.6351 39.9023C19.5691 45.8269 19.5691 51.7513 19.6351 57.6758C20.0437 60.7479 21.7779 62.6521 24.8378 63.3887C26.1238 63.4933 27.4121 63.5583 28.7027 63.584C29.2248 64.0556 29.2248 64.5276 28.7027 65C27.3483 65 25.994 65 24.6396 65C20.762 64.0917 18.5653 61.6828 18.0496 57.7734C17.9835 51.2305 17.9835 44.6875 18.0496 38.1445C18.2252 35.996 19.018 34.108 20.4279 32.4805C25.5645 27.4187 30.7012 22.3568 35.8378 17.2949C37.3271 16.1053 39.0118 15.3403 40.8919 15ZM39.009 17.2461C38.4142 18.0284 38.0344 18.9073 37.8694 19.8828C37.8633 23.0104 37.7973 26.1354 37.6712 29.2578C37.0375 31.933 35.3694 33.6094 32.6667 34.2871C29.4989 34.413 26.3277 34.478 23.1532 34.4824C22.1225 34.6198 21.1976 34.9941 20.3784 35.6055C20.6873 34.8614 21.1002 34.1778 21.6171 33.5547C26.6877 28.5579 31.7582 23.5612 36.8288 18.5645C37.4783 18.0003 38.205 17.5609 39.009 17.2461ZM49.1171 20.3711C50.4484 20.4083 51.2082 21.0756 51.3964 22.373C51.0017 24.1625 49.9446 24.7159 48.2252 24.0332C47.2746 23.2511 47.0928 22.3234 47.6802 21.25C48.078 20.8053 48.557 20.5123 49.1171 20.3711ZM52.2883 24.4727C53.3583 25.4783 54.4154 26.5037 55.4594 27.5488C57.1107 27.5977 58.7624 27.614 60.4144 27.5977C60.4144 28.0208 60.4144 28.444 60.4144 28.8672C58.5883 28.9135 56.7715 28.8646 54.9639 28.7207C53.8078 27.5813 52.6517 26.4421 51.4955 25.3027C51.78 25.0388 52.0443 24.7621 52.2883 24.4727ZM46.7387 35.5078C47.9698 35.6305 48.6635 36.2978 48.8198 37.5098C48.5256 39.1354 47.5676 39.7539 45.9459 39.3652C44.6998 38.5777 44.452 37.5523 45.2027 36.2891C45.6366 35.8557 46.1487 35.5952 46.7387 35.5078ZM58.7297 38.0469C59.2913 38.0469 59.8528 38.0469 60.4144 38.0469C60.4144 38.4375 60.4144 38.8281 60.4144 39.2188C59.9439 39.1968 59.4814 39.2456 59.027 39.3652C57.9865 40.3906 56.9459 41.416 55.9054 42.4414C55.6906 42.0996 55.4099 41.8229 55.063 41.6113C56.2748 40.4008 57.4971 39.2126 58.7297 38.0469ZM52.3874 42.5391C54.2208 42.4414 55.0631 43.2878 54.9144 45.0781C54.2303 46.4647 53.1898 46.8065 51.7928 46.1035C50.9188 45.2927 50.7702 44.3649 51.3468 43.3203C51.6382 42.9749 51.985 42.7146 52.3874 42.5391Z" fill="#262626"/>
<path opacity="0.93" fill-rule="evenodd" clip-rule="evenodd" d="M24.3428 40.7815C29.3308 40.7652 34.3189 40.7815 39.3068 40.8303C40.0566 41.2776 40.0897 41.7659 39.4059 42.2952C34.3188 42.3603 29.2316 42.3603 24.1446 42.2952C23.5729 41.6897 23.639 41.1851 24.3428 40.7815Z" fill="#262626"/>
<path opacity="0.933" fill-rule="evenodd" clip-rule="evenodd" d="M24.4416 44.5891C31.4446 44.5728 38.4476 44.5891 45.4506 44.638C45.9256 44.6832 46.1569 44.9436 46.1442 45.4192C46.164 45.7389 46.0319 45.9668 45.7479 46.1028C38.5466 46.1679 31.3455 46.1679 24.1443 46.1028C23.7001 45.741 23.634 45.3178 23.9461 44.8333C24.1259 44.7593 24.291 44.678 24.4416 44.5891Z" fill="#262626"/>
<path opacity="0.933" fill-rule="evenodd" clip-rule="evenodd" d="M24.1435 48.4964C31.3447 48.48 38.5459 48.4964 45.747 48.5452C46.0311 48.6812 46.1632 48.909 46.1434 49.2288C46.1599 49.6534 45.9617 49.9138 45.5488 50.01C38.4798 50.0752 31.4107 50.0752 24.3416 50.01C23.6262 49.6032 23.5602 49.0987 24.1435 48.4964Z" fill="#262626"/>
<path opacity="0.933" fill-rule="evenodd" clip-rule="evenodd" d="M24.2434 52.3049C31.4117 52.2886 38.5798 52.3049 45.7479 52.3538C46.1222 52.6423 46.2378 53.0167 46.0948 53.4768C45.9745 53.6281 45.8258 53.742 45.6488 53.8186C38.5137 53.8838 31.3786 53.8838 24.2434 53.8186C23.7445 53.5244 23.6288 53.1174 23.8966 52.5979C24.0101 52.487 24.1257 52.3893 24.2434 52.3049Z" fill="#262626"/>
<path opacity="0.927" fill-rule="evenodd" clip-rule="evenodd" d="M46.4413 57.3821C49.2163 57.3658 51.9911 57.3821 54.7657 57.4309C55.1871 57.7649 55.2698 58.1718 55.0134 58.6516C54.8974 58.7877 54.7487 58.8691 54.5675 58.8958C51.8918 58.9609 49.2161 58.9609 46.5404 58.8958C45.8304 58.4166 45.7974 57.912 46.4413 57.3821Z" fill="#262626"/>
</svg>
