<svg width="80" height="80" viewBox="0 0 80 80" fill="none" xmlns="http://www.w3.org/2000/svg">
<circle cx="40" cy="40" r="39.5" stroke="#262626"/>
<path opacity="0.94" fill-rule="evenodd" clip-rule="evenodd" d="M41.8555 15C42.4414 15 43.0273 15 43.6133 15C44.2277 15.193 44.8137 15.4697 45.3711 15.8301C50.498 20.957 55.625 26.084 60.752 31.2109C61.7442 32.5916 61.9232 34.0728 61.2891 35.6543C63.2041 36.0884 64.4411 37.2439 65 39.1211C65 46.6731 65 54.2253 65 61.7773C64.4792 63.405 63.405 64.4792 61.7773 65C50.0586 65 38.3398 65 26.6211 65C25.0538 64.5889 23.9959 63.6123 23.4473 62.0703C23.3207 58.9817 23.2556 55.8893 23.252 52.793C20.778 50.319 18.304 47.845 15.8301 45.3711C15.4299 44.835 15.1532 44.249 15 43.6133C15 43.0273 15 42.4414 15 41.8555C15.2012 41.1926 15.5105 40.574 15.9277 40C23.9844 31.9434 32.041 23.8867 40.0977 15.8301C40.6551 15.4697 41.241 15.193 41.8555 15ZM42.1484 16.7578C42.9998 16.6241 43.7485 16.8357 44.3945 17.3926C35.3833 26.4038 26.3826 35.4045 17.3926 44.3945C16.5815 43.3522 16.549 42.278 17.2949 41.1719C25.2539 33.2129 33.2129 25.2539 41.1719 17.2949C41.4909 17.0869 41.8164 16.9079 42.1484 16.7578ZM45.5664 18.7109C46.3879 19.3854 47.1691 20.1179 47.9102 20.9082C43.0301 25.8859 38.1146 30.8339 33.1641 35.752C31.6341 35.8171 30.1042 35.8171 28.5742 35.752C34.2579 30.0845 39.922 24.4042 45.5664 18.7109ZM49.082 22.2266C52.5569 25.5549 55.9912 28.9402 59.3848 32.3828C60.1791 33.5994 60.0651 34.7225 59.043 35.752C51.263 35.8171 43.4831 35.8171 35.7031 35.752C40.2178 31.2862 44.6774 26.7777 49.082 22.2266ZM27.0117 37.5586C38.4375 37.5423 49.8633 37.5586 61.2891 37.6074C62.2713 37.8409 62.9061 38.4431 63.1934 39.4141C63.2585 46.7708 63.2585 54.1276 63.1934 61.4844C62.8841 62.3145 62.3145 62.8841 61.4844 63.1934C49.9609 63.2585 38.4375 63.2585 26.9141 63.1934C25.9431 62.9061 25.3409 62.2713 25.1074 61.2891C25.0423 54.03 25.0423 46.7708 25.1074 39.5117C25.3693 38.485 26.0041 37.8339 27.0117 37.5586ZM23.2031 41.0742C23.3165 42.5874 23.3328 44.1173 23.252 45.6641C22.5019 46.4305 21.7369 47.1792 20.957 47.9102C20.1758 47.194 19.4271 46.4453 18.7109 45.6641C20.2104 44.1321 21.7078 42.6021 23.2031 41.0742ZM23.2031 48.2031C23.3159 48.8692 23.3322 49.5528 23.252 50.2539C22.9102 49.9121 22.5684 49.5703 22.2266 49.2285C22.572 48.8995 22.8975 48.5577 23.2031 48.2031Z" fill="#262626"/>
<path opacity="0.945" fill-rule="evenodd" clip-rule="evenodd" d="M27.6953 40.0003C29.7789 39.9839 31.8622 40.0003 33.9453 40.0491C34.4173 40.2607 34.7591 40.6025 34.9707 41.0745C35.0359 42.5718 35.0359 44.0693 34.9707 45.5667C34.7079 46.1554 34.2685 46.5297 33.6524 46.6897C31.7644 46.7548 29.8763 46.7548 27.9883 46.6897C27.328 46.5175 26.8885 46.1106 26.6699 45.469C26.6048 44.0693 26.6048 42.6695 26.6699 41.2698C26.8198 40.6816 27.1615 40.2585 27.6953 40.0003ZM28.3789 41.7581C28.3789 42.8323 28.3789 43.9065 28.3789 44.9807C30.0066 44.9807 31.6341 44.9807 33.2617 44.9807C33.2617 43.9065 33.2617 42.8323 33.2617 41.7581C31.6341 41.7581 30.0066 41.7581 28.3789 41.7581Z" fill="#262626"/>
<path opacity="0.916" fill-rule="evenodd" clip-rule="evenodd" d="M27.1094 48.3001C27.6895 48.1603 28.0964 48.3556 28.3301 48.886C28.3952 49.6347 28.3952 50.3834 28.3301 51.1321C28.0332 51.7051 27.5938 51.8516 27.0117 51.5715C26.8605 51.453 26.7466 51.3065 26.6699 51.1321C26.6048 50.3834 26.6048 49.6347 26.6699 48.886C26.7656 48.645 26.912 48.4497 27.1094 48.3001Z" fill="#262626"/>
<path opacity="0.91" fill-rule="evenodd" clip-rule="evenodd" d="M30.4297 48.3009C30.6921 48.2849 30.9526 48.3012 31.211 48.3497C31.4226 48.4311 31.5691 48.5775 31.6504 48.7892C31.7156 49.6029 31.7156 50.4168 31.6504 51.2306C31.053 51.9066 30.4995 51.8741 29.9903 51.1329C29.9251 50.3842 29.9251 49.6355 29.9903 48.8868C30.1203 48.6759 30.2668 48.4806 30.4297 48.3009Z" fill="#262626"/>
<path opacity="0.911" fill-rule="evenodd" clip-rule="evenodd" d="M33.8477 48.3004C34.3491 48.1955 34.7235 48.3583 34.9707 48.7886C35.0359 49.6024 35.0359 50.4163 34.9707 51.23C34.6323 51.7127 34.1928 51.8266 33.6524 51.5718C33.4583 51.443 33.3444 51.264 33.3106 51.0347C33.2454 50.3186 33.2454 49.6024 33.3106 48.8863C33.4434 48.6399 33.6224 48.4446 33.8477 48.3004Z" fill="#262626"/>
<path opacity="0.911" fill-rule="evenodd" clip-rule="evenodd" d="M37.1683 48.3004C37.6698 48.1955 38.0441 48.3583 38.2913 48.7886C38.3565 49.6024 38.3565 50.4163 38.2913 51.23C37.9568 51.7123 37.5173 51.8262 36.973 51.5718C36.7789 51.443 36.665 51.264 36.6312 51.0347C36.5432 50.2458 36.5757 49.4645 36.7288 48.691C36.8653 48.5377 37.0118 48.4074 37.1683 48.3004Z" fill="#262626"/>
<path opacity="0.916" fill-rule="evenodd" clip-rule="evenodd" d="M40.4883 48.3011C41.1519 48.1842 41.5588 48.4446 41.709 49.0823C41.7741 49.7008 41.7741 50.3193 41.709 50.9378C41.4896 51.6901 41.0175 51.9018 40.293 51.5726C40.1757 51.4844 40.0943 51.3705 40.0489 51.2308C39.9837 50.417 39.9837 49.6031 40.0489 48.7894C40.149 48.5758 40.2954 48.413 40.4883 48.3011Z" fill="#262626"/>
<path opacity="0.911" fill-rule="evenodd" clip-rule="evenodd" d="M47.1289 48.301C47.686 48.1971 48.0929 48.3924 48.3496 48.8869C48.4148 49.6357 48.4148 50.3843 48.3496 51.133C47.8404 51.8742 47.2869 51.9067 46.6895 51.2307C46.6243 50.4169 46.6243 49.603 46.6895 48.7893C46.7896 48.5757 46.9361 48.4129 47.1289 48.301Z" fill="#262626"/>
<path opacity="0.911" fill-rule="evenodd" clip-rule="evenodd" d="M50.4492 48.3001C51.0293 48.1603 51.4363 48.3556 51.6699 48.886C51.7351 49.6347 51.7351 50.3834 51.6699 51.1321C51.3731 51.7051 50.9336 51.8516 50.3516 51.5715C50.2003 51.453 50.0865 51.3065 50.0098 51.1321C49.9447 50.3508 49.9447 49.5696 50.0098 48.7883C50.1099 48.5748 50.2564 48.412 50.4492 48.3001Z" fill="#262626"/>
<path opacity="0.911" fill-rule="evenodd" clip-rule="evenodd" d="M53.7696 48.3009C54.032 48.2849 54.2924 48.3012 54.5508 48.3497C54.7624 48.4311 54.9089 48.5775 54.9903 48.7892C55.0554 49.5704 55.0554 50.3517 54.9903 51.1329C54.6934 51.706 54.2539 51.8524 53.6719 51.5724C53.5206 51.4538 53.4068 51.3073 53.3301 51.1329C53.265 50.3842 53.265 49.6355 53.3301 48.8868C53.4257 48.6458 53.5722 48.4505 53.7696 48.3009Z" fill="#262626"/>
<path opacity="0.911" fill-rule="evenodd" clip-rule="evenodd" d="M57.1875 48.3004C57.689 48.1955 58.0633 48.3583 58.3106 48.7886C58.3757 49.6024 58.3757 50.4163 58.3106 51.23C57.7131 51.9061 57.1597 51.8736 56.6504 51.1324C56.5853 50.3837 56.5853 49.635 56.6504 48.8863C56.7832 48.6399 56.9622 48.4446 57.1875 48.3004Z" fill="#262626"/>
<path opacity="0.926" fill-rule="evenodd" clip-rule="evenodd" d="M27.2069 53.2815C28.5093 53.2652 29.8115 53.2815 31.1131 53.3303C31.6592 53.5649 31.8382 53.9718 31.6502 54.551C31.5594 54.7514 31.4129 54.8979 31.2108 54.9905C29.8761 55.0556 28.5416 55.0556 27.2069 54.9905C26.4297 54.4259 26.4297 53.8563 27.2069 53.2815Z" fill="#262626"/>
<path opacity="0.926" fill-rule="evenodd" clip-rule="evenodd" d="M33.8476 53.2815C35.15 53.2652 36.4522 53.2815 37.7538 53.3303C38.0206 53.3692 38.1996 53.5157 38.2909 53.7698C38.4526 54.3007 38.3061 54.7076 37.8515 54.9905C36.5168 55.0556 35.1823 55.0556 33.8476 54.9905C33.0742 54.4214 33.0742 53.8518 33.8476 53.2815Z" fill="#262626"/>
<path opacity="0.924" fill-rule="evenodd" clip-rule="evenodd" d="M40.4882 53.2815C41.8233 53.2652 43.1579 53.2815 44.4922 53.3303C45.2734 53.8838 45.2734 54.4371 44.4922 54.9905C43.1575 55.0556 41.8229 55.0556 40.4882 54.9905C40.1382 54.828 39.9755 54.5513 40 54.1604C39.988 53.7605 40.1507 53.4675 40.4882 53.2815Z" fill="#262626"/>
<path opacity="0.925" fill-rule="evenodd" clip-rule="evenodd" d="M27.2072 56.6018C28.5096 56.5855 29.8117 56.6018 31.1134 56.6506C31.6243 56.9078 31.8034 57.3146 31.6505 57.8714C31.5692 58.083 31.4227 58.2295 31.2111 58.3108C29.8439 58.3759 28.4767 58.3759 27.1095 58.3108C26.4376 57.7026 26.4702 57.133 27.2072 56.6018Z" fill="#262626"/>
<path opacity="0.926" fill-rule="evenodd" clip-rule="evenodd" d="M33.9452 56.6018C35.2151 56.5855 36.4847 56.6018 37.7538 56.6506C38.3002 56.8805 38.4792 57.2875 38.2909 57.8714C38.2096 58.083 38.0631 58.2295 37.8515 58.3108C36.4843 58.3759 35.1171 58.3759 33.7499 58.3108C33.0734 57.6432 33.1386 57.0735 33.9452 56.6018Z" fill="#262626"/>
</svg>
