<svg width="80" height="80" viewBox="0 0 80 80" fill="none" xmlns="http://www.w3.org/2000/svg">
<circle cx="40" cy="40" r="39.5" stroke="#262626"/>
<path opacity="0.94" fill-rule="evenodd" clip-rule="evenodd" d="M24.0508 15.5C25.125 15.5 26.1992 15.5 27.2734 15.5C27.6605 15.9721 27.6605 16.4441 27.2734 16.916C26.2921 16.9292 25.3155 16.9943 24.3438 17.1113C23.9963 17.2961 23.7522 17.5728 23.6113 17.9414C23.5625 18.7871 23.5462 19.6335 23.5625 20.4805C32.1562 20.4805 40.75 20.4805 49.3438 20.4805C49.36 19.666 49.3438 18.8522 49.2949 18.0391C49.187 17.5795 48.9104 17.2702 48.4648 17.1113C42.4788 16.9829 36.4893 16.9178 30.4961 16.916C30.1101 16.4442 30.1101 15.9722 30.4961 15.5C36.5833 15.5 42.6706 15.5 48.7578 15.5C49.8708 15.8484 50.5707 16.5971 50.8574 17.7461C50.8899 24.1914 50.9226 30.6367 50.9551 37.082C51.9364 35.8 53.206 35.3769 54.7637 35.8125C55.5457 33.8671 56.9617 33.1185 59.0117 33.5664C59.7571 31.7121 61.1243 30.9472 63.1133 31.2715C63.9613 31.4917 64.6286 31.9637 65.1152 32.6875C66.371 35.0037 67.5755 37.3475 68.7285 39.7188C69.7525 42.1217 70.5663 44.5956 71.1699 47.1406C71.4792 47.7901 71.7559 48.4411 72 49.0938C72 49.7448 72 50.3958 72 51.0469C71.7376 52.1403 71.1842 53.0681 70.3398 53.8301C69.8956 54.2482 69.3747 54.4436 68.7773 54.416C68.3104 54.0325 68.229 53.5931 68.5332 53.0977C70.0332 52.3112 70.6517 51.0742 70.3887 49.3867C70.0251 48.5567 69.6996 47.7104 69.4121 46.8477C68.8582 44.5349 68.1095 42.2888 67.166 40.1094C66.0661 37.8717 64.9268 35.6581 63.748 33.4688C62.9768 32.6307 62.1142 32.5168 61.1602 33.127C60.6911 33.5275 60.4795 34.032 60.5254 34.6406C61.0832 35.6261 61.5878 36.6352 62.0391 37.668C61.7194 38.5229 61.2149 38.653 60.5254 38.0586C60.0601 37.1062 59.5555 36.1784 59.0117 35.2754C57.816 34.7094 56.9208 35.0186 56.3262 36.2031C56.261 36.4636 56.261 36.7239 56.3262 36.9844C56.757 37.8786 57.2127 38.7575 57.6934 39.6211C57.8382 40.2757 57.5778 40.6338 56.9121 40.6953C56.6771 40.6755 56.4818 40.5778 56.3262 40.4023C55.8262 39.4184 55.2891 38.4581 54.7148 37.5215C53.5244 36.9526 52.6292 37.2619 52.0293 38.4492C51.9642 38.7747 51.9642 39.1003 52.0293 39.4258C52.4275 40.255 52.8508 41.0688 53.2988 41.8672C53.3965 42.7133 53.0221 43.0551 52.1758 42.8926C51.9942 42.7404 51.8478 42.5614 51.7363 42.3555C49.7104 38.4013 47.6597 34.4625 45.584 30.5391C44.7542 29.461 43.8427 29.3959 42.8496 30.3438C42.3991 30.974 42.3015 31.6576 42.5566 32.3945C45.0279 36.9791 47.4205 41.6016 49.7344 46.2617C49.6457 46.8925 49.2877 47.1366 48.6602 46.9941C47.293 46.278 45.9258 45.5618 44.5586 44.8457C43.41 44.4678 42.6125 44.8422 42.166 45.9688C41.9589 46.8066 42.203 47.4739 42.8984 47.9707C46.8523 49.8988 50.7911 51.852 54.7148 53.8301C55.6027 54.4829 56.2701 55.313 56.7168 56.3203C57.7902 57.4916 59.076 57.8008 60.5742 57.248C62.1999 56.3782 63.8438 55.5481 65.5059 54.7578C66.2493 55.0024 66.4283 55.4744 66.043 56.1738C64.3503 57.0527 62.6575 57.9316 60.9648 58.8105C58.0196 59.5432 55.8874 58.5503 54.5684 55.832C54.3894 55.653 54.2103 55.4739 54.0312 55.2949C53.0136 54.7454 51.9882 54.2083 50.9551 53.6836C50.9226 56.8737 50.8899 60.0638 50.8574 63.2539C50.5707 64.4028 49.8708 65.1516 48.7578 65.5C40.5547 65.5 32.3516 65.5 24.1484 65.5C23.1165 65.1517 22.4003 64.4681 22 63.4492C22 48.1497 22 32.8503 22 17.5508C22.3906 16.5742 23.0742 15.8906 24.0508 15.5ZM23.5625 22.043C32.1562 22.043 40.75 22.043 49.3438 22.043C49.3601 26.1121 49.3438 30.1812 49.2949 34.25C48.7491 33.2562 48.2283 32.2471 47.7324 31.2227C47.6999 29.595 47.6673 27.9675 47.6348 26.3398C47.4712 25.7206 47.0969 25.2811 46.5117 25.0215C39.806 24.9564 33.1003 24.9564 26.3945 25.0215C25.8249 25.2005 25.4505 25.5749 25.2715 26.1445C25.2064 28.2278 25.2064 30.3112 25.2715 32.3945C25.418 33.0618 25.8249 33.4688 26.4922 33.6152C31.4727 33.6478 36.4531 33.6804 41.4336 33.7129C43.314 37.2131 45.1694 40.7287 47 44.2598C46.179 43.8664 45.3327 43.492 44.4609 43.1367C43.4535 38.1748 40.4262 35.7822 35.3789 35.959C31.0788 36.8403 28.7676 39.4771 28.4453 43.8691C28.7295 47.8581 30.7803 50.4297 34.5977 51.584C37.5179 52.1562 40.0569 51.4237 42.2148 49.3867C44.5195 50.6204 46.8633 51.776 49.2461 52.8535C49.3424 53.8057 49.3749 54.766 49.3438 55.7344C40.75 55.7344 32.1562 55.7344 23.5625 55.7344C23.5625 44.5039 23.5625 33.2734 23.5625 22.043ZM26.7852 26.5352C33.198 26.5188 39.6107 26.5352 46.0234 26.584C46.1354 27.3086 46.1517 28.041 46.0723 28.7812C44.4552 27.8712 42.9578 28.0339 41.5801 29.2695C40.9251 30.0983 40.6484 31.0423 40.75 32.1016C36.1274 32.1179 31.5051 32.1016 26.8828 32.0527C26.7859 30.221 26.7533 28.3818 26.7852 26.5352ZM35.4766 37.4727C39.4745 37.3224 41.9159 39.1941 42.8008 43.0879C42.2325 43.4317 41.6954 43.8386 41.1895 44.3086C40.2863 45.6039 40.2375 46.9223 41.043 48.2637C38.2723 50.6975 35.3752 50.8603 32.3516 48.752C30.1468 46.6873 29.5446 44.2297 30.5449 41.3789C31.5454 39.2545 33.1893 37.9523 35.4766 37.4727ZM23.5625 57.2969C32.1562 57.2969 40.75 57.2969 49.3438 57.2969C49.3601 59.1852 49.3438 61.0732 49.2949 62.9609C49.1076 63.6172 48.6682 63.959 47.9766 63.9863C40.2617 64.0515 32.5469 64.0515 24.832 63.9863C24.2336 63.9237 23.8267 63.6145 23.6113 63.0586C23.5625 61.1383 23.5462 59.2177 23.5625 57.2969Z" fill="#262626"/>
<path opacity="0.918" fill-rule="evenodd" clip-rule="evenodd" d="M39.871 40.4023C40.7587 40.423 41.068 40.8462 40.7987 41.6719C38.9921 43.4785 37.1854 45.2852 35.3788 47.0918C35.0989 47.2341 34.8059 47.2666 34.4999 47.1895C33.6698 46.3594 32.8397 45.5293 32.0097 44.6992C31.842 43.8578 32.1838 43.4835 33.035 43.5762C33.6505 44.0938 34.2364 44.6473 34.7929 45.2363C34.858 45.3015 34.923 45.3015 34.9882 45.2363C36.6055 43.6026 38.2331 41.9913 39.871 40.4023Z" fill="#262626"/>
<path opacity="0.931" fill-rule="evenodd" clip-rule="evenodd" d="M33.7189 58.6643C35.646 58.619 37.5667 58.6679 39.4806 58.8107C40.5218 59.5399 40.7985 60.5003 40.3107 61.6916C40.0451 62.1849 39.6381 62.4941 39.09 62.6193C37.3322 62.6845 35.5744 62.6845 33.8166 62.6193C32.5967 62.1919 32.1247 61.3293 32.4005 60.0314C32.5975 59.3301 33.037 58.8744 33.7189 58.6643ZM34.1095 60.2268C33.7316 60.4999 33.7316 60.7766 34.1095 61.0568C35.672 61.122 37.2345 61.122 38.797 61.0568C39.0575 60.7964 39.0575 60.536 38.797 60.2756C37.2348 60.2268 35.6723 60.2104 34.1095 60.2268Z" fill="#262626"/>
</svg>
